<?xml version="1.0"?>
<svg xmlns="http://www.w3.org/2000/svg" viewBox="0 0 64 64" width="512" height="512"><g id="outline"><path d="M4.013,38.06c3.114-.041,8.611-.641,12.987-3.891V35H16v2h1v2H15v2h6V39H19V37h1V35H19V33.773a30.068,30.068,0,0,0,9,3.216V61a1,1,0,0,0,1,1h6a1,1,0,0,0,1-1V60h5a1,1,0,0,0,1-1V49a1,1,0,0,0-1-1H36V37.161a23.6,23.6,0,0,0,9-3.306V35H44v2h1v2H43v2h6V39H47V37h1V35H47v-.9a22.007,22.007,0,0,0,12.761,4.015l.25,0-.022-2a20.188,20.188,0,0,1-11-3.111H49a1,1,0,0,0,1-1V28a1,1,0,0,0-1-1H47V25h1V23H44v2h1v2H36V16.161a23.6,23.6,0,0,0,9-3.306V14H44v2h1v2H43v2h6V18H47V16h1V14H47v-.9a22.007,22.007,0,0,0,12.761,4.015l.25,0-.022-2-.221,0A20.21,20.21,0,0,1,48.983,12H49a1,1,0,0,0,1-1V7a1,1,0,0,0-1-1H47V4h1V2H44V4h1V6H36V3a1,1,0,0,0-1-1H29a1,1,0,0,0-1,1V6H19V4h1V2H16V4h1V6H15a1,1,0,0,0-1,1v4a1,1,0,0,0,1,1h.184c-3.824,2.536-8.49,3.024-11.2,3.06l.026,2c3.114-.041,8.611-.641,12.987-3.891V14H16v2h1v2H15v2h6V18H19V16h1V14H19V12.773a30.068,30.068,0,0,0,9,3.216V27H19V25h1V23H16v2h1v2H15a1,1,0,0,0-1,1v4a1,1,0,0,0,1,1h.184c-3.824,2.536-8.49,3.024-11.2,3.06ZM36,8H48v2H36Zm0,4h6.451A21.66,21.66,0,0,1,36,14.178Zm0,17H48v2H36Zm0,4h6.451A21.66,21.66,0,0,1,36,35.178Zm0,17h4v8H36ZM30,4h4V14.414a22.332,22.332,0,0,1-4-.076Zm0,12.274a24.687,24.687,0,0,0,4,.091V22H32v2h2v2H32v2h2v7.414a22.332,22.332,0,0,1-4-.076ZM30,58h2V56H30V54h2V52H30V37.274a24.687,24.687,0,0,0,4,.091V60H30ZM16,10V8H28v2Zm5.806,2H28v2.035A26.817,26.817,0,0,1,21.806,12ZM28,35.034A26.772,26.772,0,0,1,21.806,33H28ZM16,29H28v2H16Z"/></g></svg>
